<svg xmlns="http://www.w3.org/2000/svg" fill="#3b49df" version="1.0" viewBox="0 0 166 102"><path d="M30.5 6.7c-4.2 2.2-6.4 4.3-8.3 7.8C20.8 17 20.4 22.1 20 45c-.7 31.3-1.2 33.6-9.6 45C8 93.3 6 96.2 6 96.5c0 .3 31.8.4 70.8.3l70.7-.3 4.7-2.7c3.2-2 5.2-4.1 6.7-7.2 2.1-4.3 2.2-5.4 1.9-37.4l-.3-33-3.1-3.9c-6.1-7.6-3-7.3-66.9-7.3-50 .1-57.4.3-60 1.7zM71 34.5v8.4l8.3.3 8.2.3v15l-8.2.3-8.3.3V76H56V59h-7.5c-4.1 0-7.5-.3-7.5-.8 0-.4.8-3.9 1.8-7.7l1.8-7 5.7-.3 5.7-.3V26h15v8.5zm57.8.2.3 8.2 8.2.3 8.2.3v15l-8.2.3-8.2.3-.3 8.2-.3 8.2h-15l-.3-8.3-.3-8.2H97V43h16v-7.8c0-4.3.3-8.2.7-8.6.4-.4 3.9-.5 7.8-.4l7 .3.3 8.2z"/></svg>