<svg version="1.1" id="Layer_1" xmlns="http://www.w3.org/2000/svg" xmlns:xlink="http://www.w3.org/1999/xlink" x="0px" y="0px"
	 width="100%" viewBox="0 0 195 148" enable-background="new 0 0 195 148" xml:space="preserve">
<path fill="#5966F2" opacity="1.000000" stroke="none" 
	d="
M52.000000,149.000000 
	C50.933353,149.000000 49.866703,149.000000 48.299385,148.654175 
	C38.642891,144.180420 29.319859,140.379929 20.386032,135.817322 
	C13.665229,132.384949 7.443750,127.974861 0.999999,124.000000 
	C1.000000,123.555557 1.000000,123.111115 1.327204,122.156784 
	C1.733341,118.743149 1.812274,115.839417 1.913497,112.479248 
	C1.894802,108.323997 1.853816,104.625183 1.850202,100.571289 
	C1.879502,99.502151 1.871431,98.788086 2.072837,97.793869 
	C1.854877,96.009140 1.427438,94.504570 1.000000,93.000000 
	C1.000000,91.933350 1.000000,90.866699 1.377510,89.306641 
	C2.054741,87.881889 2.511127,86.970284 2.631298,86.016319 
	C5.723974,61.465473 14.455646,38.982750 27.898499,18.342005 
	C29.824532,15.384690 33.060406,12.622746 36.311352,11.316099 
	C44.310410,8.101051 52.682480,5.819635 60.876316,3.078393 
	C62.320965,2.595086 63.628918,1.703201 65.000000,1.000000 
	C66.714104,1.000000 68.428200,1.000000 70.718292,1.317045 
	C72.281883,3.545339 73.495605,5.376774 74.204918,7.386257 
	C75.311363,10.520848 76.952675,11.676684 80.488182,11.079545 
	C85.205368,10.282825 90.052399,10.069847 94.850716,9.979104 
	C103.429848,9.816862 112.014252,9.933412 121.326683,9.933412 
	C122.476990,7.734511 124.238495,4.367256 126.000000,1.000000 
	C127.388893,1.000000 128.777786,1.000000 130.724182,1.349005 
	C141.813660,5.148584 152.381790,8.495584 162.843933,12.146282 
	C164.702393,12.794779 166.571152,14.408497 167.673218,16.079138 
	C181.756836,37.428886 191.191132,60.576164 194.371094,86.107841 
	C194.579376,87.780243 195.441833,89.371170 196.000000,91.000000 
	C196.000000,91.444443 196.000000,91.888885 195.694580,92.812584 
	C195.302826,94.884102 195.216492,96.476364 195.098236,98.453094 
	C195.111084,99.863586 195.155853,100.889610 195.152115,102.375954 
	C195.107437,106.201660 195.111252,109.567047 194.898773,113.264954 
	C195.121643,116.398315 195.560822,119.199158 196.000000,122.000000 
	C196.000000,122.444443 196.000000,122.888885 195.657532,123.719162 
	C183.045700,132.770462 170.115555,140.210571 155.995651,145.483765 
	C153.272507,146.500732 150.662292,147.820114 148.000000,149.000000 
	C147.250000,149.000000 146.500000,149.000000 145.389038,148.646057 
	C141.783325,143.014252 138.538574,137.736374 135.233994,132.361191 
	C141.113190,129.460342 146.108307,126.995697 151.103409,124.531059 
	C151.029083,123.851082 150.954742,123.171104 150.880402,122.491119 
	C148.823151,122.392464 146.473618,121.587563 144.752014,122.300018 
	C113.982391,135.033371 83.261833,135.192444 52.556767,122.248802 
	C49.655228,121.025665 47.634892,121.130486 45.812141,124.490257 
	C51.121651,127.127449 56.239613,129.669510 61.612465,132.338165 
	C58.256035,138.156067 55.128021,143.578033 52.000000,149.000000 
M113.886429,87.405975 
	C117.730194,99.266632 126.956215,104.659241 136.717178,100.750549 
	C145.089066,97.398109 149.928452,87.302612 147.845291,77.536125 
	C145.933792,68.574463 138.294235,62.390076 129.741760,62.880917 
	C121.139992,63.374592 114.130074,70.899918 113.351967,80.665451 
	C113.196060,82.622208 113.595802,84.623238 113.886429,87.405975 
M50.055954,90.067528 
	C53.082008,93.450134 55.879608,97.086021 59.230495,100.108498 
	C60.905983,101.619774 63.686108,102.959236 65.804390,102.748192 
	C76.083908,101.724052 83.748833,92.640442 83.729385,82.194351 
	C83.712814,73.291649 78.125290,65.471054 70.240250,63.314220 
	C63.434101,61.452503 55.889755,64.576668 51.823261,71.106972 
	C48.271065,76.811378 47.812405,82.933922 50.055954,90.067528 
z"/>
<path fill="#FDFDFF" opacity="1.000000" stroke="none" 
	d="
M52.468658,149.000000 
	C55.128021,143.578033 58.256035,138.156067 61.612465,132.338165 
	C56.239613,129.669510 51.121651,127.127449 45.812141,124.490257 
	C47.634892,121.130486 49.655228,121.025665 52.556767,122.248802 
	C83.261833,135.192444 113.982391,135.033371 144.752014,122.300018 
	C146.473618,121.587563 148.823151,122.392464 150.880402,122.491119 
	C150.954742,123.171104 151.029083,123.851082 151.103409,124.531059 
	C146.108307,126.995697 141.113190,129.460342 135.233994,132.361191 
	C138.538574,137.736374 141.783325,143.014252 145.014038,148.646057 
	C114.312439,149.000000 83.624878,149.000000 52.468658,149.000000 
z"/>
<path fill="#FDFDFF" opacity="1.000000" stroke="none" 
	d="
M196.000000,90.531342 
	C195.441833,89.371170 194.579376,87.780243 194.371094,86.107841 
	C191.191132,60.576164 181.756836,37.428886 167.673218,16.079138 
	C166.571152,14.408497 164.702393,12.794779 162.843933,12.146282 
	C152.381790,8.495584 141.813660,5.148584 131.140839,1.349005 
	C152.605331,1.000000 174.210678,1.000000 196.000000,1.000000 
	C196.000000,30.687307 196.000000,60.374996 196.000000,90.531342 
z"/>
<path fill="#FDFDFF" opacity="1.000000" stroke="none" 
	d="
M64.531342,1.000000 
	C63.628918,1.703201 62.320965,2.595086 60.876316,3.078393 
	C52.682480,5.819635 44.310410,8.101051 36.311352,11.316099 
	C33.060406,12.622746 29.824532,15.384690 27.898499,18.342005 
	C14.455646,38.982750 5.723974,61.465473 2.631298,86.016319 
	C2.511127,86.970284 2.054741,87.881889 1.377510,88.906616 
	C1.000000,59.751331 1.000000,30.502666 1.000000,1.000000 
	C22.020212,1.000000 43.041447,1.000000 64.531342,1.000000 
z"/>
<path fill="#FDFDFF" opacity="1.000000" stroke="none" 
	d="
M0.999999,124.468674 
	C7.443750,127.974861 13.665229,132.384949 20.386032,135.817322 
	C29.319859,140.379929 38.642891,144.180420 47.899353,148.654175 
	C32.429165,149.000000 16.858328,149.000000 1.000000,149.000000 
	C1.000000,140.981400 1.000000,132.959381 0.999999,124.468674 
z"/>
<path fill="#FDFDFF" opacity="1.000000" stroke="none" 
	d="
M148.468658,149.000000 
	C150.662292,147.820114 153.272507,146.500732 155.995651,145.483765 
	C170.115555,140.210571 183.045700,132.770462 195.657532,124.052505 
	C196.000000,132.283066 196.000000,140.566132 196.000000,149.000000 
	C180.312714,149.000000 164.625015,149.000000 148.468658,149.000000 
z"/>
<path fill="#FCFDFF" opacity="1.000000" stroke="none" 
	d="
M125.531342,1.000000 
	C124.238495,4.367256 122.476990,7.734511 121.326683,9.933412 
	C112.014252,9.933412 103.429848,9.816862 94.850716,9.979104 
	C90.052399,10.069847 85.205368,10.282825 80.488182,11.079545 
	C76.952675,11.676684 75.311363,10.520848 74.204918,7.386257 
	C73.495605,5.376774 72.281883,3.545339 71.147141,1.317045 
	C89.020897,1.000000 107.041786,1.000000 125.531342,1.000000 
z"/>
<path fill="#4958F1" opacity="1.000000" stroke="none" 
	d="
M1.891206,112.935677 
	C1.812274,115.839417 1.733341,118.743149 1.327204,121.823441 
	C1.000000,119.299988 1.000000,116.599968 1.222807,113.433975 
	C1.445614,112.967987 1.891206,112.935677 1.891206,112.935677 
z"/>
<path fill="#4958F1" opacity="1.000000" stroke="none" 
	d="
M196.000000,121.550018 
	C195.560822,119.199158 195.121643,116.398315 195.119919,113.280792 
	C195.557388,112.964119 196.000000,113.000000 196.000000,113.000000 
	C196.000000,115.700012 196.000000,118.400032 196.000000,121.550018 
z"/>
<path fill="#9299F6" opacity="1.000000" stroke="none" 
	d="
M1.913497,112.479248 
	C1.891206,112.935677 1.445614,112.967987 1.222807,112.983994 
	C1.000000,109.307091 1.000000,105.614182 1.202591,101.435425 
	C1.405183,100.949577 1.812830,100.926369 1.812830,100.926369 
	C1.853816,104.625183 1.894802,108.323997 1.913497,112.479248 
z"/>
<path fill="#939BF6" opacity="1.000000" stroke="none" 
	d="
M196.000000,112.542023 
	C196.000000,113.000000 195.557388,112.964119 195.336243,112.948280 
	C195.111252,109.567047 195.107437,106.201660 195.352554,102.388016 
	C195.601501,101.939758 196.000000,102.000000 196.000000,102.000000 
	C196.000000,105.361343 196.000000,108.722694 196.000000,112.542023 
z"/>
<path fill="#4958F1" opacity="1.000000" stroke="none" 
	d="
M195.130157,98.068626 
	C195.216492,96.476364 195.302826,94.884102 195.694580,93.145920 
	C196.000000,94.388893 196.000000,95.777779 195.782639,97.601715 
	C195.565277,98.036751 195.130157,98.068626 195.130157,98.068626 
z"/>
<path fill="#4958F1" opacity="1.000000" stroke="none" 
	d="
M1.000000,93.416664 
	C1.427438,94.504570 1.854877,96.009140 1.856724,97.779366 
	C1.431132,98.045021 1.000000,98.000000 1.000000,98.000000 
	C1.000000,96.611107 1.000000,95.222221 1.000000,93.416664 
z"/>
<path fill="#B0B5F8" opacity="1.000000" stroke="none" 
	d="
M195.098236,98.453094 
	C195.130157,98.068626 195.565277,98.036751 195.782639,98.018372 
	C196.000000,99.066704 196.000000,100.133400 196.000000,101.600052 
	C196.000000,102.000000 195.601501,101.939758 195.401062,101.927704 
	C195.155853,100.889610 195.111084,99.863586 195.098236,98.453094 
z"/>
<path fill="#ABB1F8" opacity="1.000000" stroke="none" 
	d="
M1.000000,98.375000 
	C1.000000,98.000000 1.431132,98.045021 1.647245,98.059525 
	C1.871431,98.788086 1.879502,99.502151 1.850202,100.571289 
	C1.812830,100.926369 1.405183,100.949577 1.202591,100.974792 
	C1.000000,100.250000 1.000000,99.500000 1.000000,98.375000 
z"/>
<path fill="#FDFDFF" opacity="1.000000" stroke="none" 
	d="
M113.812889,87.004913 
	C113.595802,84.623238 113.196060,82.622208 113.351967,80.665451 
	C114.130074,70.899918 121.139992,63.374592 129.741760,62.880917 
	C138.294235,62.390076 145.933792,68.574463 147.845291,77.536125 
	C149.928452,87.302612 145.089066,97.398109 136.717178,100.750549 
	C126.956215,104.659241 117.730194,99.266632 113.812889,87.004913 
z"/>
<path fill="#FDFDFF" opacity="1.000000" stroke="none" 
	d="
M49.927505,89.679832 
	C47.812405,82.933922 48.271065,76.811378 51.823261,71.106972 
	C55.889755,64.576668 63.434101,61.452503 70.240250,63.314220 
	C78.125290,65.471054 83.712814,73.291649 83.729385,82.194351 
	C83.748833,92.640442 76.083908,101.724052 65.804390,102.748192 
	C63.686108,102.959236 60.905983,101.619774 59.230495,100.108498 
	C55.879608,97.086021 53.082008,93.450134 49.927505,89.679832 
z"/>
</svg>