<svg version="1.1" id="Layer_1" xmlns="http://www.w3.org/2000/svg" xmlns:xlink="http://www.w3.org/1999/xlink" x="0px" y="0px"
	 width="100%" viewBox="0 0 1604 802" enable-background="new 0 0 1604 802" xml:space="preserve" style="background: none;">
<path fill="none" opacity="1.000000" stroke="none" 
	d="
M990.000000,803.000000 
	C660.000000,803.000000 330.500000,803.000000 1.000000,803.000000 
	C1.000000,535.666687 1.000000,268.333344 1.000000,1.000000 
	C535.666687,1.000000 1070.333374,1.000000 1605.000000,1.000000 
	C1605.000000,268.333344 1605.000000,535.666687 1605.000000,803.000000 
	C1400.166626,803.000000 1195.333374,803.000000 990.000000,803.000000 
M949.971985,559.966553 
	C949.971985,559.966553 949.932556,559.885620 949.430847,560.053650 
	C949.239258,560.338135 949.047668,560.622681 948.948120,560.928589 
	C948.948120,560.928589 948.907471,560.843262 948.294312,561.029419 
	C947.422363,561.908386 946.550415,562.787354 945.745911,563.769043 
	C945.745911,563.769043 945.799500,563.658569 945.212769,563.722900 
	C944.783020,564.105713 944.353271,564.488464 943.908447,564.917297 
	C943.908447,564.917297 943.862305,564.902527 943.227600,565.086365 
	C941.400085,566.644287 939.572571,568.202209 937.827148,569.828186 
	C937.827148,569.828186 937.836182,569.721985 937.184265,569.817871 
	C935.798218,570.802856 934.412170,571.787842 932.333130,572.958984 
	C890.092957,599.863647 843.593750,608.866882 794.624695,602.539001 
	C734.997375,594.833923 688.918823,564.042358 655.067993,514.623840 
	C644.946045,499.846893 637.718384,483.621735 631.150269,466.197968 
	C630.116943,462.519592 629.059753,458.847748 628.054199,455.161804 
	C621.598633,431.497162 618.870972,407.381317 622.041077,383.058594 
	C624.051270,367.635315 628.131409,352.481812 631.782654,336.702454 
	C631.912415,336.395630 632.049377,336.091675 632.170898,335.781647 
	C663.508850,255.851746 720.539307,208.540482 807.043030,200.626266 
	C851.890930,196.523132 893.243958,208.399231 929.863647,235.185776 
	C936.116699,239.759735 941.966125,244.885422 947.014282,248.959122 
	C978.314270,217.747574 1009.265381,186.883926 1040.442139,155.795349 
	C1039.952271,155.374756 1039.054077,154.638641 1038.194336,153.860031 
	C988.047424,108.444817 929.490845,81.307564 862.311279,72.870209 
	C818.311646,67.344101 774.780457,69.870644 732.081787,81.817818 
	C650.588379,104.619850 586.690491,151.801331 540.308777,222.524353 
	C533.775940,232.485611 528.637268,243.361191 522.261414,254.184113 
	C521.973816,254.591187 521.624695,254.967987 521.407410,255.409653 
	C500.534698,297.838623 489.261414,342.733124 487.380920,389.931213 
	C485.917450,426.663757 490.210785,462.839905 501.514313,497.804688 
	C507.371948,515.923950 515.722046,533.237549 523.025635,551.645386 
	C564.237732,631.091309 626.941223,686.073486 711.266113,715.980713 
	C759.149719,732.963440 808.616089,737.236206 859.027954,732.020752 
	C909.512756,726.797668 956.864319,712.086670 999.554688,684.297424 
	C1012.857666,675.637817 1024.738647,664.793701 1037.890747,654.904053 
	C1039.027222,653.706177 1040.163818,652.508240 1041.272827,651.213928 
	C1041.272827,651.213928 1041.186646,651.265076 1041.741943,651.133057 
	C1041.917847,650.816223 1042.093750,650.499390 1042.151611,650.168396 
	C1042.151611,650.168396 1042.195679,650.278870 1042.768311,650.166077 
	C1042.937744,649.836548 1043.107178,649.507080 1043.123901,649.178101 
	C1043.123901,649.178101 1043.177124,649.321350 1043.775024,649.277588 
	C1044.180298,648.862305 1044.585571,648.447021 1045.020630,648.020874 
	C1045.020630,648.020874 1045.031494,647.990906 1045.568115,647.738098 
	C1045.823730,647.225769 1046.079346,646.713379 1046.169556,646.179688 
	C1046.169556,646.179688 1046.213135,646.340698 1046.798828,646.275391 
	C1047.191284,645.862183 1047.583862,645.449036 1048.031982,645.031799 
	C1048.031982,645.031799 1048.040161,644.976624 1048.480591,644.823730 
	C1048.763184,644.642151 1048.918579,644.384033 1049.039551,644.036072 
	C1049.039551,644.036072 1049.040283,643.942505 1049.558594,643.696533 
	C1049.809814,643.197693 1050.061035,642.698853 1050.196899,642.160767 
	C1050.196899,642.160767 1050.223999,642.279419 1050.767700,642.146851 
	C1050.935791,641.830627 1051.103760,641.514404 1051.165161,641.153809 
	C1051.165161,641.153809 1051.203735,641.262634 1051.749268,641.127930 
	C1051.917969,640.810364 1052.086548,640.492859 1052.151123,640.155396 
	C1052.151123,640.155396 1052.187866,640.254822 1052.739868,640.119202 
	C1052.905029,639.794250 1053.070190,639.469299 1053.155518,639.221924 
	C1053.155518,639.221924 1053.253052,639.275818 1053.837036,639.110474 
	C1054.307739,638.482178 1054.778442,637.853882 1055.202759,637.144104 
	C1055.202759,637.144104 1055.142212,637.215576 1055.676514,637.065308 
	C1055.854858,636.755310 1056.033203,636.445312 1056.117432,636.116821 
	C1056.117432,636.116821 1056.142700,636.209351 1056.663086,636.050903 
	C1056.830444,635.740295 1056.997925,635.429626 1057.058716,635.161072 
	C1057.058716,635.161072 1057.173218,635.165283 1057.704712,634.940247 
	C1058.163574,634.343933 1058.622437,633.747620 1059.100586,633.113708 
	C1059.100586,633.113708 1059.127808,633.081238 1059.562256,632.906555 
	C1059.829712,632.710632 1059.983643,632.448242 1060.109253,632.093262 
	C1060.109253,632.093262 1060.121094,632.004883 1060.683594,631.704102 
	C1062.168457,629.843811 1063.653198,627.983521 1065.102905,626.033142 
	C1065.102905,626.033142 1065.078003,626.126404 1065.520996,625.934021 
	C1065.799561,625.737732 1065.960571,625.470581 1066.126465,625.099304 
	C1066.126465,625.099304 1066.135742,624.972717 1066.614868,624.685425 
	C1066.848145,624.189636 1067.081421,623.693848 1067.204224,623.150879 
	C1067.204224,623.150879 1067.221069,623.269897 1067.781860,623.079102 
	C1068.210693,622.446411 1068.639404,621.813660 1069.681885,620.876526 
	C1076.707764,610.770142 1084.275146,600.993347 1090.661499,590.497864 
	C1113.119629,553.590576 1126.593628,513.418030 1133.244873,470.813660 
	C1139.723267,429.315643 1139.339355,387.893066 1132.906494,346.435669 
	C1132.135254,341.464661 1130.540283,339.745972 1125.133423,339.756744 
	C1025.161377,339.955658 925.188904,339.897430 825.216492,339.907013 
	C823.306030,339.907196 821.395630,340.071655 819.599548,340.154236 
	C819.599548,383.502258 819.599548,426.209534 819.599548,469.595306 
	C879.889648,469.595306 939.738220,469.595306 1001.169861,469.595306 
	C997.230896,481.678711 994.061462,492.848480 989.951599,503.660736 
	C984.164185,518.886169 974.823669,532.098816 964.410767,545.078491 
	C964.241150,545.359314 964.071533,545.640137 963.951843,545.946838 
	C963.951843,545.946838 963.892456,545.910828 963.382690,546.139709 
	C962.960693,546.730469 962.538757,547.321228 961.913147,547.945312 
	C961.913147,547.945312 961.918701,548.151672 961.427979,548.390259 
	C961.190735,548.868469 960.953430,549.346680 960.851624,549.837524 
	C960.851624,549.837524 960.807251,549.708923 960.258972,549.780029 
	C959.906311,550.174927 959.553650,550.569763 958.978760,550.999878 
	C958.978760,550.999878 958.963135,551.224426 958.475647,551.390442 
	C958.051086,551.913452 957.626526,552.436401 956.638794,553.205566 
	C956.412048,553.538269 956.185364,553.870972 955.452087,554.407104 
	C955.200317,554.873962 954.948547,555.340820 954.838440,555.828674 
	C954.838440,555.828674 954.797729,555.691345 954.255920,555.766724 
	C953.916748,556.163330 953.577576,556.559937 952.999023,556.999207 
	C952.999023,556.999207 952.953796,557.238098 952.432129,557.376038 
	C951.934448,557.885864 951.436768,558.395691 950.992371,558.967896 
	C950.992371,558.967896 950.919556,558.930359 950.441284,559.107300 
	C950.256653,559.383423 950.072021,559.659607 949.971985,559.966553 
z"/>
<path fill="#E33F2C" opacity="1.000000" stroke="none" 
	d="
M522.853210,253.813538 
	C528.637268,243.361191 533.775940,232.485611 540.308777,222.524353 
	C586.690491,151.801331 650.588379,104.619850 732.081787,81.817818 
	C774.780457,69.870644 818.311646,67.344101 862.311279,72.870209 
	C929.490845,81.307564 988.047424,108.444817 1038.194336,153.860031 
	C1039.054077,154.638641 1039.952271,155.374756 1040.442139,155.795349 
	C1009.265381,186.883926 978.314270,217.747574 947.014282,248.959122 
	C941.966125,244.885422 936.116699,239.759735 929.863647,235.185776 
	C893.243958,208.399231 851.890930,196.523132 807.043030,200.626266 
	C720.539307,208.540482 663.508850,255.851746 632.170898,335.781647 
	C632.049377,336.091675 631.912415,336.395630 631.214111,336.784515 
	C604.239868,316.332977 577.865967,295.758331 551.411438,275.287872 
	C541.992676,267.999664 532.378296,260.964294 522.853210,253.813538 
z"/>
<path fill="#2CA24D" opacity="1.000000" stroke="none" 
	d="
M1037.270630,654.949707 
	C1024.738647,664.793701 1012.857666,675.637817 999.554688,684.297424 
	C956.864319,712.086670 909.512756,726.797668 859.027954,732.020752 
	C808.616089,737.236206 759.149719,732.963440 711.266113,715.980713 
	C626.941223,686.073486 564.237732,631.091309 523.274963,551.118408 
	C559.437805,522.731018 595.351318,494.870605 631.264832,467.010223 
	C637.718384,483.621735 644.946045,499.846893 655.067993,514.623840 
	C688.918823,564.042358 734.997375,594.833923 794.624695,602.539001 
	C843.593750,608.866882 890.092957,599.863647 932.818726,573.183105 
	C941.328003,579.533997 949.390625,585.610657 957.367615,591.797668 
	C975.571960,605.916931 993.783142,620.028320 1011.892395,634.268921 
	C1020.469116,641.013367 1028.818359,648.047058 1037.270630,654.949707 
z"/>
<path fill="#3C7DEC" opacity="1.000000" stroke="none" 
	d="
M964.861450,544.861938 
	C974.823669,532.098816 984.164185,518.886169 989.951599,503.660736 
	C994.061462,492.848480 997.230896,481.678711 1001.169861,469.595306 
	C939.738220,469.595306 879.889648,469.595306 819.599548,469.595306 
	C819.599548,426.209534 819.599548,383.502258 819.599548,340.154236 
	C821.395630,340.071655 823.306030,339.907196 825.216492,339.907013 
	C925.188904,339.897430 1025.161377,339.955658 1125.133423,339.756744 
	C1130.540283,339.745972 1132.135254,341.464661 1132.906494,346.435669 
	C1139.339355,387.893066 1139.723267,429.315643 1133.244873,470.813660 
	C1126.593628,513.418030 1113.119629,553.590576 1090.661499,590.497864 
	C1084.275146,600.993347 1076.707764,610.770142 1069.096069,621.119507 
	C1068.080566,621.998291 1067.650879,622.634094 1067.221069,623.269897 
	C1067.221069,623.269897 1067.204224,623.150879 1066.969727,623.263306 
	C1066.535400,623.908081 1066.335571,624.440430 1066.135742,624.972717 
	C1066.135742,624.972717 1066.126465,625.099304 1065.847412,625.208984 
	C1065.307373,625.528687 1065.143921,625.797913 1065.078003,626.126404 
	C1065.078003,626.126404 1065.102905,626.033142 1064.762451,626.083008 
	C1062.988403,628.090210 1061.554688,630.047546 1060.121094,632.004883 
	C1060.121094,632.004883 1060.109253,632.093262 1059.853760,632.196533 
	C1059.334839,632.496033 1059.178101,632.756531 1059.127808,633.081238 
	C1059.127808,633.081238 1059.100586,633.113708 1058.762695,633.143677 
	C1058.007690,633.837524 1057.590454,634.501404 1057.173218,635.165283 
	C1057.173218,635.165283 1057.058716,635.161072 1056.861938,635.234741 
	C1056.490967,635.608765 1056.316895,635.909058 1056.142700,636.209351 
	C1056.142700,636.209351 1056.117432,636.116821 1055.905029,636.212891 
	C1055.509155,636.611145 1055.325684,636.913391 1055.142212,637.215576 
	C1055.142212,637.215576 1055.202759,637.144104 1054.871338,637.170288 
	C1054.110962,637.889526 1053.682007,638.582703 1053.253052,639.275818 
	C1053.253052,639.275818 1053.155518,639.221924 1052.930420,639.268799 
	C1052.532959,639.628784 1052.360474,639.941833 1052.187866,640.254822 
	C1052.187866,640.254822 1052.151123,640.155396 1051.935425,640.241333 
	C1051.547729,640.639099 1051.375732,640.950867 1051.203735,641.262634 
	C1051.203735,641.262634 1051.165161,641.153809 1050.946777,641.244629 
	C1050.560181,641.650085 1050.392090,641.964722 1050.223999,642.279419 
	C1050.223999,642.279419 1050.196899,642.160767 1049.963379,642.263550 
	C1049.500000,642.891663 1049.270142,643.417114 1049.040283,643.942505 
	C1049.040283,643.942505 1049.039551,644.036072 1048.798096,644.148438 
	C1048.314575,644.448975 1048.142456,644.687561 1048.040161,644.976624 
	C1048.040161,644.976624 1048.031982,645.031799 1047.699219,645.065796 
	C1046.982056,645.513367 1046.597534,645.927002 1046.213135,646.340698 
	C1046.213135,646.340698 1046.169556,646.179688 1045.949951,646.270386 
	C1045.497314,646.904358 1045.264404,647.447632 1045.031494,647.990906 
	C1045.031494,647.990906 1045.020630,648.020874 1044.699341,648.058350 
	C1043.977783,648.504395 1043.577393,648.912903 1043.177124,649.321350 
	C1043.177124,649.321350 1043.123901,649.178101 1042.924561,649.251099 
	C1042.548828,649.642395 1042.372314,649.960632 1042.195679,650.278870 
	C1042.195679,650.278870 1042.151611,650.168396 1041.936768,650.245483 
	C1041.543579,650.636780 1041.365112,650.950928 1041.186646,651.265076 
	C1041.186646,651.265076 1041.272827,651.213928 1040.893555,651.175415 
	C1039.209351,650.507324 1037.753296,650.076660 1036.623169,649.217285 
	C1025.445923,640.718384 1014.305176,632.170898 1003.187744,623.593750 
	C981.860291,607.139465 960.531860,590.685974 939.309814,574.096741 
	C938.297363,573.305298 938.304077,571.210022 937.836182,569.721985 
	C937.836182,569.721985 937.827148,569.828186 938.159424,569.826416 
	C940.281860,568.183960 942.072083,566.543213 943.862305,564.902527 
	C943.862305,564.902527 943.908447,564.917297 944.231750,564.892944 
	C944.969910,564.465271 945.384705,564.061951 945.799500,563.658569 
	C945.799500,563.658569 945.745911,563.769043 946.058655,563.774841 
	C947.216797,562.801514 948.062134,561.822388 948.907471,560.843262 
	C948.907471,560.843262 948.948120,560.928589 949.146240,560.824402 
	C949.540405,560.442017 949.736450,560.163818 949.932556,559.885620 
	C949.932556,559.885620 949.971985,559.966553 950.163208,559.853638 
	C950.542725,559.470581 950.731140,559.200439 950.919556,558.930298 
	C950.919556,558.930359 950.992371,558.967896 951.265259,558.922607 
	C952.010010,558.330872 952.481873,557.784485 952.953796,557.238098 
	C952.953796,557.238098 952.999023,556.999207 953.390869,556.930908 
	C954.121033,556.472168 954.459351,556.081787 954.797729,555.691345 
	C954.797729,555.691345 954.838440,555.828674 955.045959,555.747559 
	C955.488525,555.178894 955.723633,554.691345 955.958679,554.203735 
	C956.185364,553.870972 956.412048,553.538269 957.192261,553.032837 
	C958.151489,552.314819 958.557312,551.769592 958.963135,551.224426 
	C958.963135,551.224426 958.978760,550.999878 959.364868,550.936035 
	C960.103027,550.484436 960.455139,550.096680 960.807251,549.708923 
	C960.807251,549.708923 960.851624,549.837524 961.057678,549.740662 
	C961.482056,549.146423 961.700378,548.649048 961.918701,548.151672 
	C961.918701,548.151672 961.913147,547.945312 962.319702,547.889771 
	C963.114990,547.193115 963.503723,546.552002 963.892456,545.910828 
	C963.892456,545.910828 963.951843,545.946838 964.157593,545.830139 
	C964.529419,545.429565 964.695435,545.145752 964.861450,544.861938 
z"/>
<path fill="#EFB503" opacity="1.000000" stroke="none" 
	d="
M631.207520,466.604095 
	C595.351318,494.870605 559.437805,522.731018 523.235229,550.753296 
	C515.722046,533.237549 507.371948,515.923950 501.514313,497.804688 
	C490.210785,462.839905 485.917450,426.663757 487.380920,389.931213 
	C489.261414,342.733124 500.534698,297.838623 521.407410,255.409653 
	C521.624695,254.967987 521.973816,254.591187 522.557312,253.998825 
	C532.378296,260.964294 541.992676,267.999664 551.411438,275.287872 
	C577.865967,295.758331 604.239868,316.332977 630.964355,337.036926 
	C628.131409,352.481812 624.051270,367.635315 622.041077,383.058594 
	C618.870972,407.381317 621.598633,431.497162 628.054199,455.161804 
	C629.059753,458.847748 630.116943,462.519592 631.207520,466.604095 
z"/>
<path fill="#368EA4" opacity="1.000000" stroke="none" 
	d="
M937.510254,569.769897 
	C938.304077,571.210022 938.297363,573.305298 939.309814,574.096741 
	C960.531860,590.685974 981.860291,607.139465 1003.187744,623.593750 
	C1014.305176,632.170898 1025.445923,640.718384 1036.623169,649.217285 
	C1037.753296,650.076660 1039.209351,650.507324 1040.907227,651.223633 
	C1040.163818,652.508240 1039.027222,653.706177 1037.580688,654.926880 
	C1028.818359,648.047058 1020.469116,641.013367 1011.892395,634.268921 
	C993.783142,620.028320 975.571960,605.916931 957.367615,591.797668 
	C949.390625,585.610657 941.328003,579.533997 933.165222,573.090027 
	C934.412170,571.787842 935.798218,570.802856 937.510254,569.769897 
z"/>
<path fill="#368EA4" opacity="1.000000" stroke="none" 
	d="
M943.544922,564.994446 
	C942.072083,566.543213 940.281860,568.183960 938.118408,569.792419 
	C939.572571,568.202209 941.400085,566.644287 943.544922,564.994446 
z"/>
<path fill="#368EA4" opacity="1.000000" stroke="none" 
	d="
M1060.402344,631.854492 
	C1061.554688,630.047546 1062.988403,628.090210 1064.780029,626.128052 
	C1063.653198,627.983521 1062.168457,629.843811 1060.402344,631.854492 
z"/>
<path fill="#368EA4" opacity="1.000000" stroke="none" 
	d="
M948.600891,560.936340 
	C948.062134,561.822388 947.216797,562.801514 946.024902,563.723511 
	C946.550415,562.787354 947.422363,561.908386 948.600891,560.936340 
z"/>
<path fill="#368EA4" opacity="1.000000" stroke="none" 
	d="
M1053.545044,639.193115 
	C1053.682007,638.582703 1054.110962,637.889526 1054.894531,637.210938 
	C1054.778442,637.853882 1054.307739,638.482178 1053.545044,639.193115 
z"/>
<path fill="#368EA4" opacity="1.000000" stroke="none" 
	d="
M1057.438965,635.052795 
	C1057.590454,634.501404 1058.007690,633.837524 1058.753052,633.162476 
	C1058.622437,633.747620 1058.163574,634.343933 1057.438965,635.052795 
z"/>
<path fill="#368EA4" opacity="1.000000" stroke="none" 
	d="
M958.719360,551.307434 
	C958.557312,551.769592 958.151489,552.314819 957.473755,552.909668 
	C957.626526,552.436401 958.051086,551.913452 958.719360,551.307434 
z"/>
<path fill="#368EA4" opacity="1.000000" stroke="none" 
	d="
M952.692993,557.307068 
	C952.481873,557.784485 952.010010,558.330872 951.238647,558.891357 
	C951.436768,558.395691 951.934448,557.885864 952.692993,557.307068 
z"/>
<path fill="#368EA4" opacity="1.000000" stroke="none" 
	d="
M963.637573,546.025269 
	C963.503723,546.552002 963.114990,547.193115 962.421509,547.873169 
	C962.538757,547.321228 962.960693,546.730469 963.637573,546.025269 
z"/>
<path fill="#368EA4" opacity="1.000000" stroke="none" 
	d="
M1067.501465,623.174500 
	C1067.650879,622.634094 1068.080566,621.998291 1068.789185,621.271729 
	C1068.639404,621.813660 1068.210693,622.446411 1067.501465,623.174500 
z"/>
<path fill="#368EA4" opacity="1.000000" stroke="none" 
	d="
M955.705383,554.305420 
	C955.723633,554.691345 955.488525,555.178894 954.975098,555.737061 
	C954.948547,555.340820 955.200317,554.873962 955.705383,554.305420 
z"/>
<path fill="#368EA4" opacity="1.000000" stroke="none" 
	d="
M1049.299438,643.819519 
	C1049.270142,643.417114 1049.500000,642.891663 1050.020996,642.283142 
	C1050.061035,642.698853 1049.809814,643.197693 1049.299438,643.819519 
z"/>
<path fill="#368EA4" opacity="1.000000" stroke="none" 
	d="
M1046.505981,646.307983 
	C1046.597534,645.927002 1046.982056,645.513367 1047.671387,645.067749 
	C1047.583862,645.449036 1047.191284,645.862183 1046.505981,646.307983 
z"/>
<path fill="#368EA4" opacity="1.000000" stroke="none" 
	d="
M1045.299805,647.864502 
	C1045.264404,647.447632 1045.497314,646.904358 1046.032715,646.281067 
	C1046.079346,646.713379 1045.823730,647.225769 1045.299805,647.864502 
z"/>
<path fill="#368EA4" opacity="1.000000" stroke="none" 
	d="
M1066.375244,624.829102 
	C1066.335571,624.440430 1066.535400,623.908081 1067.024902,623.286865 
	C1067.081421,623.693848 1066.848145,624.189636 1066.375244,624.829102 
z"/>
<path fill="#368EA4" opacity="1.000000" stroke="none" 
	d="
M961.673340,548.270996 
	C961.700378,548.649048 961.482056,549.146423 960.989990,549.734375 
	C960.953430,549.346680 961.190735,548.868469 961.673340,548.270996 
z"/>
<path fill="#368EA4" opacity="1.000000" stroke="none" 
	d="
M960.533081,549.744507 
	C960.455139,550.096680 960.103027,550.484436 959.475952,550.918457 
	C959.553650,550.569763 959.906311,550.174927 960.533081,549.744507 
z"/>
<path fill="#368EA4" opacity="1.000000" stroke="none" 
	d="
M945.506104,563.690735 
	C945.384705,564.061951 944.969910,564.465271 944.239258,564.869873 
	C944.353271,564.488464 944.783020,564.105713 945.506104,563.690735 
z"/>
<path fill="#368EA4" opacity="1.000000" stroke="none" 
	d="
M1043.476074,649.299438 
	C1043.577393,648.912903 1043.977783,648.504395 1044.684326,648.063782 
	C1044.585571,648.447021 1044.180298,648.862305 1043.476074,649.299438 
z"/>
<path fill="#368EA4" opacity="1.000000" stroke="none" 
	d="
M954.526855,555.729004 
	C954.459351,556.081787 954.121033,556.472168 953.510498,556.909546 
	C953.577576,556.559937 953.916748,556.163330 954.526855,555.729004 
z"/>
<path fill="#368EA4" opacity="1.000000" stroke="none" 
	d="
M1041.464355,651.199097 
	C1041.365112,650.950928 1041.543579,650.636780 1041.995850,650.252563 
	C1042.093750,650.499390 1041.917847,650.816223 1041.464355,651.199097 
z"/>
<path fill="#368EA4" opacity="1.000000" stroke="none" 
	d="
M1048.260376,644.900146 
	C1048.142456,644.687561 1048.314575,644.448975 1048.751709,644.155090 
	C1048.918579,644.384033 1048.763184,644.642151 1048.260376,644.900146 
z"/>
<path fill="#368EA4" opacity="1.000000" stroke="none" 
	d="
M1042.481934,650.222473 
	C1042.372314,649.960632 1042.548828,649.642395 1043.000977,649.250854 
	C1043.107178,649.507080 1042.937744,649.836548 1042.481934,650.222473 
z"/>
<path fill="#368EA4" opacity="1.000000" stroke="none" 
	d="
M1050.495850,642.213135 
	C1050.392090,641.964722 1050.560181,641.650085 1051.000000,641.266785 
	C1051.103760,641.514404 1050.935791,641.830627 1050.495850,642.213135 
z"/>
<path fill="#368EA4" opacity="1.000000" stroke="none" 
	d="
M1051.476562,641.195312 
	C1051.375732,640.950867 1051.547729,640.639099 1051.987549,640.251343 
	C1052.086548,640.492859 1051.917969,640.810364 1051.476562,641.195312 
z"/>
<path fill="#368EA4" opacity="1.000000" stroke="none" 
	d="
M1052.463867,640.187012 
	C1052.360474,639.941833 1052.532959,639.628784 1052.970459,639.230042 
	C1053.070190,639.469299 1052.905029,639.794250 1052.463867,640.187012 
z"/>
<path fill="#368EA4" opacity="1.000000" stroke="none" 
	d="
M1055.409424,637.140442 
	C1055.325684,636.913391 1055.509155,636.611145 1055.952026,636.222107 
	C1056.033203,636.445312 1055.854858,636.755310 1055.409424,637.140442 
z"/>
<path fill="#368EA4" opacity="1.000000" stroke="none" 
	d="
M1056.402832,636.130127 
	C1056.316895,635.909058 1056.490967,635.608765 1056.915283,635.213745 
	C1056.997925,635.429626 1056.830444,635.740295 1056.402832,636.130127 
z"/>
<path fill="#368EA4" opacity="1.000000" stroke="none" 
	d="
M1059.344971,632.993896 
	C1059.178101,632.756531 1059.334839,632.496033 1059.811035,632.209473 
	C1059.983643,632.448242 1059.829712,632.710632 1059.344971,632.993896 
z"/>
<path fill="#368EA4" opacity="1.000000" stroke="none" 
	d="
M1065.299561,626.030212 
	C1065.143921,625.797913 1065.307373,625.528687 1065.786133,625.225586 
	C1065.960571,625.470581 1065.799561,625.737732 1065.299561,626.030212 
z"/>
<path fill="#368EA4" opacity="1.000000" stroke="none" 
	d="
M949.681702,559.969604 
	C949.736450,560.163818 949.540405,560.442017 949.100220,560.813721 
	C949.047668,560.622681 949.239258,560.338135 949.681702,559.969604 
z"/>
<path fill="#368EA4" opacity="1.000000" stroke="none" 
	d="
M950.680420,559.018799 
	C950.731140,559.200439 950.542725,559.470581 950.120850,559.838257 
	C950.072021,559.659607 950.256653,559.383423 950.680420,559.018799 
z"/>
<path fill="#368EA4" opacity="1.000000" stroke="none" 
	d="
M964.636108,544.970215 
	C964.695435,545.145752 964.529419,545.429565 964.132629,545.817261 
	C964.071533,545.640137 964.241150,545.359314 964.636108,544.970215 
z"/>
</svg>